<?xml version="1.0" encoding="utf-8"?>
<!-- Generator: Adobe Illustrator 17.1.0, SVG Export Plug-In . SVG Version: 6.00 Build 0)  -->
<!DOCTYPE svg PUBLIC "-//W3C//DTD SVG 1.0//EN" "http://www.w3.org/TR/2001/REC-SVG-20010904/DTD/svg10.dtd">
<svg version="1.0" id="Layer_1" xmlns="http://www.w3.org/2000/svg" xmlns:xlink="http://www.w3.org/1999/xlink" x="0px" y="0px"
	 width="185px" height="48.628px" viewBox="0 0 185 48.628" style="enable-background:new 0 0 185 48.628;" xml:space="preserve">
<style type="text/css">
	.st0{fill:#9EBCB0;}
	.st1{fill:#EBBC4E;}
	.st2{fill:#C6D97A;}
	.st3{fill:#CBCAC7;}
	.st4{fill:#77777A;}
	.st5{clip-path:url(#SVGID_2_);fill:#DE1F26;}
	.st6{clip-path:url(#SVGID_2_);fill:#77777A;}
	.st7{clip-path:url(#SVGID_4_);fill:#77777A;}
</style>
<rect x="116.776" y="0" class="st4" width="0.876" height="39.563"/>
<g>
	<defs>
		<rect id="SVGID_1_" x="0" y="0" width="185" height="48.628"/>
	</defs>
	<clipPath id="SVGID_2_">
		<use xlink:href="#SVGID_1_"  style="overflow:visible;"/>
	</clipPath>
	<path class="st5" d="M35.829,31.82V14.693c0-3.284-2.135-4.766-5.029-4.766c-3.514,0-6.34,2.576-6.34,5.925V31.82h-6.545V14.693
		c0-3.284-2.274-4.766-5.168-4.766c-3.513,0-6.201,2.576-6.201,5.989V31.82H0V4.34l6.546,0.565v2.704
		c1.654-1.931,4.548-3.348,7.579-3.348c4.548,0,7.166,1.482,9.026,4.121c2.206-2.833,6.27-4.121,9.234-4.121
		c7.51,0,9.99,4.443,9.99,9.852V31.82H35.829z"/>
	<path class="st5" d="M94.187,32.272c-3.809,0.204-7.686-1.137-10.604-4.026c-5.481-5.431-5.522-14.309-0.092-19.793
		c2.631-2.656,6.14-4.129,9.877-4.145c3.738-0.017,7.26,1.422,9.915,4.054l-4.346,4.386c-1.484-1.47-3.451-2.274-5.54-2.264
		c-2.092,0.011-4.049,0.832-5.519,2.315c-3.034,3.064-3.011,8.025,0.052,11.059c3.063,3.036,8.024,3.012,11.059-0.051l4.386,4.346
		C100.834,30.717,97.537,32.093,94.187,32.272"/>
	<path class="st5" d="M53.101,18.319c0-4.312,3.509-7.819,7.821-7.819c4.311,0,7.819,3.507,7.819,7.819s-3.508,7.821-7.819,7.821
		C56.61,26.14,53.101,22.631,53.101,18.319 M71.923,9.685h2.253l1.008-5.116H63.515c-0.841-0.158-1.707-0.244-2.593-0.244
		c-7.718,0-13.996,6.277-13.996,13.994s6.278,13.995,13.996,13.995c1.956,0,3.82-0.405,5.512-1.133
		c0.748,1.164,1.151,2.517,1.151,3.934c0,1.95-0.759,3.783-2.138,5.162c-1.316,1.315-3.063,2.388-4.921,2.448
		c-2.673,0.088-7.557,0.022-7.557,0.022l-1.272,5.881c0,0,7.64,0.002,9.031-0.044c3.431-0.113,6.658-1.513,9.086-3.94
		c2.545-2.545,3.947-5.929,3.947-9.529c0-2.741-0.816-5.356-2.328-7.572c2.166-2.465,3.483-5.693,3.483-9.224
		C74.916,15.063,73.795,12.065,71.923,9.685"/>
	<path class="st6" d="M134.769,12.066v-1.084c0-0.648-0.298-0.893-1.05-0.893h-2.118v2.94h2.047
		C134.471,13.029,134.769,12.714,134.769,12.066 M133.526,14.762h-1.925v2.66h-2.17V8.321h4.27c2.397,0,3.185,0.945,3.185,2.555
		v1.313c0,1.033-0.28,1.628-1.208,2.135l2.101,3.098h-2.468L133.526,14.762z"/>
</g>
<polygon class="st4" points="140.753,8.321 147.142,8.321 147.142,10.107 142.924,10.107 142.924,11.874 146.826,11.874 
	146.826,13.677 142.924,13.677 142.924,15.637 147.142,15.637 147.142,17.422 140.753,17.422 "/>
<path class="st4" d="M154.475,9.966l-1.33,4.13h2.66L154.475,9.966z M159.008,17.422h-2.17l-0.525-1.628h-3.676l-0.525,1.628h-2.17
	l3.185-9.101h2.696L159.008,17.422z"/>
<polygon class="st4" points="164.155,15.55 168.163,15.55 168.163,17.423 161.985,17.423 161.985,8.322 164.155,8.322 "/>
<polygon class="st4" points="129.43,22.761 135.818,22.761 135.818,24.547 131.6,24.547 131.6,26.314 135.503,26.314 
	135.503,28.117 131.6,28.117 131.6,30.077 135.818,30.077 135.818,31.862 129.43,31.862 "/>
<g>
	<defs>
		<rect id="SVGID_3_" x="0" y="0" width="185" height="48.628"/>
	</defs>
	<clipPath id="SVGID_4_">
		<use xlink:href="#SVGID_3_"  style="overflow:visible;"/>
	</clipPath>
	<path class="st7" d="M142.119,32.037c-1.015,0-2.293-0.193-3.237-0.578l0.35-1.645c0.822,0.245,1.977,0.438,2.905,0.438
		c1.155,0,1.417-0.227,1.417-0.928c0-0.682-0.069-0.857-1.872-1.242c-2.486-0.525-2.713-1.208-2.713-2.923
		c0-1.943,1.102-2.573,3.518-2.573c0.892,0,2.153,0.123,3.028,0.368l-0.263,1.732c-0.962-0.21-1.96-0.315-2.73-0.315
		c-1.173,0-1.383,0.14-1.383,0.858c0,0.77,0.07,0.822,1.82,1.225c2.573,0.595,2.766,1.032,2.766,2.783
		C145.725,31.109,145.025,32.037,142.119,32.037"/>
</g>
<polygon class="st4" points="151.01,24.634 148.227,24.634 148.227,22.761 155.963,22.761 155.963,24.634 153.18,24.634 
	153.18,31.862 151.01,31.862 "/>
<path class="st4" d="M161.932,24.406l-1.33,4.13h2.66L161.932,24.406z M166.465,31.862h-2.17l-0.525-1.628h-3.676l-0.525,1.628
	h-2.17l3.185-9.101h2.696L166.465,31.862z"/>
<polygon class="st4" points="170.683,24.634 167.9,24.634 167.9,22.761 175.636,22.761 175.636,24.634 172.853,24.634 
	172.853,31.862 170.683,31.862 "/>
<polygon class="st4" points="178.612,22.761 178.612,31.862 185,31.862 185,30.077 180.782,30.077 180.782,28.116 184.684,28.116 
	184.684,26.314 180.782,26.314 180.782,24.547 185,24.547 185,22.761 "/>
</svg>
